<svg version="1.0" xmlns="http://www.w3.org/2000/svg" width="800.000000" height="800.000000" viewBox="0 0 800.000000 800.000000" preserveAspectRatio="xMidYMid meet">
  <metadata>
    <rdf:RDF xmlns:rdf="http://www.w3.org/1999/02/22-rdf-syntax-ns#" xmlns:rdfs="http://www.w3.org/2000/01/rdf-schema#" xmlns:dc="http://purl.org/dc/elements/1.1/">
      <rdf:Description dc:format="image/svg+xml" dc:Label="1" dc:ContentProducer="001191330110MACRLGPT8B00000" dc:ProduceID="273904861" dc:ReservedCode1="+kjlXJcvbXF911cVkIm34i4twfuJnbAWBhNrvx57tzA=" dc:ContentPropagator="001191330110MACRLGPT8B00000" dc:PropagateID="273904861" dc:ReservedCode2="+kjlXJcvbXF911cVkIm34i4twfuJnbAWBhNrvx57tzA="/>
    </rdf:RDF>
  </metadata>
  <g transform="translate(0.000000,800.000000) scale(0.100000,-0.100000)" fill="#000000" stroke="none">
    <path d="M1640 5380 l0 -610 90 0 90 0 0 525 0 525 465 0 465 0 0 -525 0 -525 80 0 80 0 1 568 c1 312 2 585 3 607 l1 40 -637 3 -638 2 0 -610z"/>
    <path d="M1647 4463 c-4 -3 -7 -557 -7 -1230 l0 -1223 635 0 635 0 0 1230 0 1230 -628 0 c-346 0 -632 -3 -635 -7z m1101 -1225 l-3 -1063 -462 -3 -463 -2 0 1065 0 1065 465 0 465 0 -2 -1062z"/>
    <path d="M3220 4385 l0 -85 1485 0 1485 0 -2 -517 -3 -518 -1482 -3 -1483 -2 0 -85 0 -85 1565 0 1565 0 0 690 0 690 -1565 0 -1565 0 0 -85z"/>
    <path d="M3772 3958 l3 -83 130 0 130 -1 3 -202 2 -202 80 0 80 0 2 203 3 202 113 3 113 3 -3 77 -3 77 -328 3 -328 2 3 -82z"/>
  </g>
</svg>