<svg version="1.0" xmlns="http://www.w3.org/2000/svg" width="800.000000" height="800.000000" viewBox="0 0 800.000000 800.000000" preserveAspectRatio="xMidYMid meet">
  <metadata>
    <rdf:RDF xmlns:rdf="http://www.w3.org/1999/02/22-rdf-syntax-ns#" xmlns:rdfs="http://www.w3.org/2000/01/rdf-schema#" xmlns:dc="http://purl.org/dc/elements/1.1/">
      <rdf:Description dc:format="image/svg+xml" dc:Label="1" dc:ContentProducer="001191330110MACRLGPT8B00000" dc:ProduceID="273905642" dc:ReservedCode1="bGzd1HtLPN6WIS0xmxCmJJ8r1eT+Z0w++tsLfNuzivo=" dc:ContentPropagator="001191330110MACRLGPT8B00000" dc:PropagateID="273905642" dc:ReservedCode2="bGzd1HtLPN6WIS0xmxCmJJ8r1eT+Z0w++tsLfNuzivo="/>
    </rdf:RDF>
  </metadata>
  <g transform="translate(0.000000,800.000000) scale(0.100000,-0.100000)" fill="#000000" stroke="none">
    <path d="M2297 5858 c-42 -106 -109 -281 -150 -388 -42 -107 -114 -296 -162 -420 -48 -124 -100 -260 -116 -302 l-28 -78 123 0 124 0 60 158 59 157 298 0 298 0 42 -110 c23 -60 49 -131 59 -157 l18 -48 123 0 124 0 -15 43 c-8 23 -39 105 -69 182 -30 77 -142 367 -248 645 l-193 505 -136 3 -136 3 -75 -193z m322 -358 c55 -151 103 -283 106 -292 7 -17 -8 -18 -219 -18 -124 0 -226 1 -226 3 0 2 29 79 64 173 35 93 80 216 101 274 56 157 55 154 65 144 5 -5 54 -133 109 -284z"/>
    <path d="M3310 5360 l0 -690 115 0 115 0 0 690 0 690 -115 0 -115 0 0 -690z"/>
    <path d="M4070 5865 l0 -125 585 0 585 0 0 -744 c0 -669 2 -744 16 -750 9 -3 63 -6 120 -6 l104 0 0 875 0 875 -705 0 -705 0 0 -125z"/>
    <path d="M4355 4747 c-67 -23 -99 -43 -149 -96 -94 -102 -91 -79 -94 -624 l-3 -479 -43 40 c-25 23 -68 53 -98 69 -46 24 -64 28 -135 27 -71 0 -90 -5 -147 -33 -75 -37 -133 -97 -172 -179 -24 -50 -26 -64 -22 -146 7 -151 7 -151 460 -597 215 -211 413 -401 441 -422 154 -116 386 -177 679 -177 476 0 741 152 847 487 46 146 52 224 49 653 l-3 405 -27 57 c-56 120 -164 185 -293 174 -38 -3 -82 -8 -96 -11 -21 -6 -29 -1 -49 28 -28 40 -99 90 -153 107 -34 11 -134 10 -188 -2 -10 -2 -32 17 -57 49 -60 76 -130 106 -233 101 l-77 -3 -4 165 c-3 153 -5 169 -29 220 -54 116 -166 191 -292 196 -42 2 -89 -2 -112 -9z m162 -261 l28 -24 5 -496 5 -496 28 -27 c23 -24 36 -28 81 -28 103 0 116 34 116 296 0 180 1 186 23 206 29 27 65 35 109 23 63 -18 63 -16 68 -312 l5 -270 28 -24 c36 -31 78 -31 114 0 l28 24 3 189 c1 103 5 198 7 210 10 43 86 66 139 41 58 -26 61 -41 62 -301 1 -224 2 -240 21 -258 30 -30 98 -28 130 3 24 24 24 28 26 201 l2 177 28 27 c38 39 101 37 135 -2 l24 -28 -4 -406 c-4 -384 -6 -410 -27 -481 -53 -180 -158 -280 -343 -326 -89 -22 -373 -30 -491 -14 -116 15 -228 50 -292 91 -52 33 -94 73 -559 526 -272 266 -278 273 -283 317 -5 42 -3 48 30 81 43 43 97 48 143 13 33 -25 30 -23 264 -248 94 -91 174 -166 178 -168 4 -1 6 318 4 709 -2 628 0 714 13 743 28 59 103 74 152 32z"/>
    <path d="M2010 3420 l0 -870 740 0 740 0 0 125 0 125 -616 0 -617 -1 -1 743 -1 743 -122 3 -123 3 0 -871z"/>
  </g>
</svg>