<svg version="1.0" xmlns="http://www.w3.org/2000/svg" width="800.000000" height="800.000000" viewBox="0 0 800.000000 800.000000" preserveAspectRatio="xMidYMid meet">
  <metadata>
    <rdf:RDF xmlns:rdf="http://www.w3.org/1999/02/22-rdf-syntax-ns#" xmlns:rdfs="http://www.w3.org/2000/01/rdf-schema#" xmlns:dc="http://purl.org/dc/elements/1.1/">
      <rdf:Description dc:format="image/svg+xml" dc:Label="1" dc:ContentProducer="001191330110MACRLGPT8B00000" dc:ProduceID="273905647" dc:ReservedCode1="JeVtc0kAjBLPGIlmMNBaNgMdh0eH64AuqcOOGFa2Uq8=" dc:ContentPropagator="001191330110MACRLGPT8B00000" dc:PropagateID="273905647" dc:ReservedCode2="JeVtc0kAjBLPGIlmMNBaNgMdh0eH64AuqcOOGFa2Uq8="/>
    </rdf:RDF>
  </metadata>
  <g transform="translate(0.000000,800.000000) scale(0.100000,-0.100000)" fill="#000000" stroke="none">
    <path d="M3865 5910 c-563 -87 -929 -632 -794 -1181 26 -105 101 -263 167 -349 127 -168 329 -300 539 -352 124 -31 322 -31 447 0 176 44 345 141 468 270 447 468 313 1234 -267 1518 -132 64 -245 93 -384 99 -64 2 -143 0 -176 -5z m315 -227 c206 -49 392 -198 486 -388 61 -124 78 -196 78 -335 0 -138 -23 -233 -87 -354 -54 -103 -184 -237 -278 -290 -302 -166 -659 -121 -898 113 -128 125 -197 266 -221 449 -32 250 80 514 285 670 188 142 407 189 635 135z"/>
    <path d="M3810 3779 c-397 -30 -837 -141 -1230 -309 -295 -127 -370 -181 -435 -315 -60 -124 -65 -161 -65 -544 0 -243 4 -356 12 -385 16 -53 81 -118 134 -134 60 -18 3488 -18 3548 0 53 16 118 81 134 134 8 29 12 143 12 390 0 320 -2 356 -20 423 -28 101 -60 159 -125 229 -70 75 -98 92 -319 187 -444 190 -851 293 -1286 325 -150 11 -205 11 -360 -1z m451 -219 c374 -37 806 -157 1172 -325 76 -35 154 -75 172 -90 20 -15 48 -53 67 -93 l33 -67 0 -345 0 -345 -1705 0 -1705 0 0 340 c0 330 1 342 23 396 34 85 76 123 199 181 383 179 780 294 1181 343 133 16 425 18 563 5z"/>
  </g>
</svg>