<svg version="1.0" xmlns="http://www.w3.org/2000/svg" width="800.000000" height="800.000000" viewBox="0 0 800.000000 800.000000" preserveAspectRatio="xMidYMid meet">
  <metadata>
    <rdf:RDF xmlns:rdf="http://www.w3.org/1999/02/22-rdf-syntax-ns#" xmlns:rdfs="http://www.w3.org/2000/01/rdf-schema#" xmlns:dc="http://purl.org/dc/elements/1.1/">
      <rdf:Description dc:format="image/svg+xml" dc:Label="1" dc:ContentProducer="001191330110MACRLGPT8B00000" dc:ProduceID="273904863" dc:ReservedCode1="jg0NxuXlCGulOjgfrlXVhJ4wlEKK9kqVcbbckJmTAgc=" dc:ContentPropagator="001191330110MACRLGPT8B00000" dc:PropagateID="273904863" dc:ReservedCode2="jg0NxuXlCGulOjgfrlXVhJ4wlEKK9kqVcbbckJmTAgc="/>
    </rdf:RDF>
  </metadata>
  <g transform="translate(0.000000,800.000000) scale(0.100000,-0.100000)" fill="#000000" stroke="none">
    <path d="M1720 6176 c-95 -27 -184 -90 -225 -159 -57 -99 -56 -81 -56 -727 0 -533 2 -601 17 -645 40 -120 143 -214 267 -245 54 -14 49 3 72 -260 21 -233 31 -260 97 -260 23 0 289 166 703 439 l100 66 845 5 845 5 58 27 c80 38 158 115 193 191 l29 62 0 615 0 615 -26 56 c-50 106 -143 185 -254 214 -52 13 -213 15 -1340 14 -990 -1 -1290 -4 -1325 -13z m2655 -175 c47 -22 99 -74 114 -114 7 -19 11 -223 11 -607 l0 -578 -33 -48 c-20 -31 -48 -57 -78 -72 l-46 -23 -839 1 -839 0 -343 -220 c-188 -121 -346 -220 -350 -220 -5 0 -17 87 -26 193 -20 218 -28 237 -95 237 -107 1 -187 45 -226 123 l-25 51 0 555 c0 361 4 569 11 594 14 52 71 112 122 131 36 12 217 14 1322 15 1227 1 1282 0 1320 -18z"/>
    <path d="M2309 5710 c-126 -15 -246 -98 -300 -207 -21 -42 -24 -62 -24 -163 0 -141 25 -228 97 -336 64 -95 118 -144 161 -144 63 1 98 55 72 115 -7 19 -18 35 -22 35 -5 0 -26 22 -47 49 -102 135 -134 302 -73 393 88 129 316 129 398 0 25 -39 29 -56 29 -114 0 -116 -46 -222 -138 -321 -40 -44 -44 -52 -38 -85 7 -46 37 -72 84 -72 29 0 43 8 79 48 69 74 114 149 147 242 26 73 30 100 30 190 1 95 -2 110 -27 161 -31 63 -103 136 -167 169 -38 19 -160 51 -185 49 -5 -1 -40 -5 -76 -9z"/>
    <path d="M3125 5347 c-38 -32 -38 -92 0 -124 l26 -23 443 0 c433 0 444 0 470 21 21 16 26 29 26 64 0 35 -5 48 -26 64 -26 21 -37 21 -470 21 l-443 0 -26 -23z"/>
    <path d="M3280 3974 c-115 -31 -211 -112 -263 -222 l-32 -67 0 -546 0 -545 37 -76 c55 -111 142 -181 263 -212 51 -14 184 -16 1023 -16 l963 0 42 -29 c23 -15 161 -101 307 -191 146 -89 304 -187 351 -216 47 -30 96 -54 107 -54 11 0 32 10 46 23 24 21 43 111 95 431 6 36 9 39 63 56 77 24 118 51 181 121 52 57 97 145 97 189 0 10 5 22 10 25 6 4 10 177 10 487 l0 481 -26 76 c-56 161 -167 261 -324 291 -34 6 -558 10 -1474 9 -1218 0 -1429 -2 -1476 -15z m2986 -176 c46 -25 94 -77 115 -123 17 -37 19 -77 19 -533 0 -535 1 -524 -57 -600 -34 -45 -114 -82 -179 -82 -27 0 -58 -6 -67 -12 -12 -9 -25 -54 -43 -153 -14 -77 -30 -166 -36 -197 -5 -32 -14 -58 -19 -58 -5 0 -91 51 -192 113 -195 121 -294 183 -422 259 l-80 48 -985 0 -985 0 -51 24 c-62 29 -110 84 -129 150 -21 70 -22 939 -1 1008 23 79 88 145 164 168 15 5 677 8 1472 7 1346 -2 1447 -3 1476 -19z"/>
    <path d="M4144 3330 c-191 -45 -204 -309 -19 -370 123 -41 245 53 245 189 0 59 -9 82 -53 129 -26 27 -111 65 -136 61 -3 -1 -20 -4 -37 -9z"/>
    <path d="M4856 3325 c-43 -15 -91 -57 -112 -97 -8 -15 -14 -53 -14 -86 0 -69 29 -123 88 -162 55 -36 143 -35 201 3 47 31 91 109 91 163 0 74 -71 161 -151 184 -43 13 -56 12 -103 -5z"/>
    <path d="M5598 3330 c-90 -28 -142 -99 -143 -192 0 -47 6 -64 30 -100 76 -109 232 -116 311 -13 23 31 29 50 32 106 4 60 1 74 -22 113 -38 65 -140 108 -208 86z"/>
  </g>
</svg>